<mxfile host="app.diagrams.net" agent="Mozilla/5.0 (Windows NT 10.0; Win64; x64) AppleWebKit/537.36 (KHTML, like Gecko) Chrome/135.0.0.0 Safari/537.36" version="26.2.12">
  <diagram name="페이지-1" id="Z3MUPWsjcf1fWxBZGg0Y">
    <mxGraphModel dx="1454" dy="604" grid="1" gridSize="10" guides="1" tooltips="1" connect="1" arrows="1" fold="1" page="1" pageScale="1" pageWidth="827" pageHeight="1169" math="0" shadow="0">
      <root>
        <mxCell id="0" />
        <mxCell id="1" parent="0" />
        <mxCell id="2lLB-E0RqOmEVBIA-LBa-1" value="사용자" style="swimlane;whiteSpace=wrap;startSize=23;" vertex="1" parent="1">
          <mxGeometry x="164.5" y="128" width="255.5" height="570" as="geometry" />
        </mxCell>
        <mxCell id="2lLB-E0RqOmEVBIA-LBa-2" value="" style="ellipse;shape=endState;fillColor=#000000;strokeColor=#ff0000" vertex="1" parent="2lLB-E0RqOmEVBIA-LBa-1">
          <mxGeometry x="75.5" y="502" width="30" height="30" as="geometry" />
        </mxCell>
        <mxCell id="2lLB-E0RqOmEVBIA-LBa-3" value="" style="endArrow=open;strokeColor=#FF0000;endFill=1;rounded=0;entryX=0.5;entryY=0;entryDx=0;entryDy=0;exitX=0.5;exitY=1;exitDx=0;exitDy=0;" edge="1" parent="2lLB-E0RqOmEVBIA-LBa-1" source="2lLB-E0RqOmEVBIA-LBa-9" target="2lLB-E0RqOmEVBIA-LBa-2">
          <mxGeometry relative="1" as="geometry">
            <mxPoint x="65.5" y="392" as="sourcePoint" />
            <mxPoint x="310.5" y="360" as="targetPoint" />
            <Array as="points" />
          </mxGeometry>
        </mxCell>
        <mxCell id="2lLB-E0RqOmEVBIA-LBa-4" value="" style="ellipse;shape=startState;fillColor=#000000;strokeColor=#ff0000;" vertex="1" parent="2lLB-E0RqOmEVBIA-LBa-1">
          <mxGeometry x="75.5" y="40" width="30" height="30" as="geometry" />
        </mxCell>
        <mxCell id="2lLB-E0RqOmEVBIA-LBa-5" value="" style="edgeStyle=elbowEdgeStyle;elbow=horizontal;verticalAlign=bottom;endArrow=open;endSize=8;strokeColor=#FF0000;endFill=1;rounded=0" edge="1" parent="2lLB-E0RqOmEVBIA-LBa-1" source="2lLB-E0RqOmEVBIA-LBa-4" target="2lLB-E0RqOmEVBIA-LBa-6">
          <mxGeometry x="100" y="40" as="geometry">
            <mxPoint x="90.5" y="110" as="targetPoint" />
          </mxGeometry>
        </mxCell>
        <mxCell id="2lLB-E0RqOmEVBIA-LBa-6" value="메뉴에서 캘린더&#xa;탭 열기" style="" vertex="1" parent="2lLB-E0RqOmEVBIA-LBa-1">
          <mxGeometry x="35.5" y="110" width="110" height="50" as="geometry" />
        </mxCell>
        <mxCell id="2lLB-E0RqOmEVBIA-LBa-7" value="캘린더 조회" style="" vertex="1" parent="2lLB-E0RqOmEVBIA-LBa-1">
          <mxGeometry x="35.5" y="220" width="110" height="50" as="geometry" />
        </mxCell>
        <mxCell id="2lLB-E0RqOmEVBIA-LBa-8" value="" style="endArrow=open;strokeColor=#FF0000;endFill=1;rounded=0" edge="1" parent="2lLB-E0RqOmEVBIA-LBa-1" source="2lLB-E0RqOmEVBIA-LBa-7">
          <mxGeometry relative="1" as="geometry">
            <mxPoint x="91" y="302" as="targetPoint" />
          </mxGeometry>
        </mxCell>
        <mxCell id="2lLB-E0RqOmEVBIA-LBa-9" value="" style="rhombus;whiteSpace=wrap;html=1;" vertex="1" parent="2lLB-E0RqOmEVBIA-LBa-1">
          <mxGeometry x="63" y="302" width="55" height="55" as="geometry" />
        </mxCell>
        <mxCell id="2lLB-E0RqOmEVBIA-LBa-10" value="사용자가 캘린더에 있는&lt;div&gt;D-Day 추가 버튼을 눌렀는가?&lt;/div&gt;" style="text;html=1;align=left;verticalAlign=middle;whiteSpace=wrap;rounded=0;" vertex="1" parent="2lLB-E0RqOmEVBIA-LBa-1">
          <mxGeometry x="95.5" y="272" width="154.5" height="30" as="geometry" />
        </mxCell>
        <mxCell id="2lLB-E0RqOmEVBIA-LBa-11" value="&amp;lt;&amp;lt;아니오&amp;gt;&amp;gt;" style="text;html=1;align=center;verticalAlign=middle;whiteSpace=wrap;rounded=0;" vertex="1" parent="2lLB-E0RqOmEVBIA-LBa-1">
          <mxGeometry x="82.75" y="382" width="90" height="30" as="geometry" />
        </mxCell>
        <mxCell id="2lLB-E0RqOmEVBIA-LBa-12" value="&amp;lt;&amp;lt;예&amp;gt;&amp;gt;" style="text;html=1;align=center;verticalAlign=middle;whiteSpace=wrap;rounded=0;" vertex="1" parent="2lLB-E0RqOmEVBIA-LBa-1">
          <mxGeometry x="105.5" y="327" width="90" height="30" as="geometry" />
        </mxCell>
        <mxCell id="2lLB-E0RqOmEVBIA-LBa-13" value="시스템" style="swimlane;whiteSpace=wrap" vertex="1" parent="1">
          <mxGeometry x="420" y="128" width="180" height="570" as="geometry" />
        </mxCell>
        <mxCell id="2lLB-E0RqOmEVBIA-LBa-14" value="D-Day 리스트를&#xa;가져와 캘린더에 표시" style="" vertex="1" parent="2lLB-E0RqOmEVBIA-LBa-13">
          <mxGeometry x="20" y="110" width="110" height="50" as="geometry" />
        </mxCell>
        <mxCell id="2lLB-E0RqOmEVBIA-LBa-15" value="D-Day 추가" style="" vertex="1" parent="2lLB-E0RqOmEVBIA-LBa-13">
          <mxGeometry x="20" y="304.5" width="110" height="50" as="geometry" />
        </mxCell>
        <mxCell id="2lLB-E0RqOmEVBIA-LBa-16" value="D-Day 앱 캘린더 관련 활동" style="text;html=1;align=left;verticalAlign=middle;whiteSpace=wrap;rounded=0;fontSize=24;" vertex="1" parent="1">
          <mxGeometry x="164.5" y="90" width="315.5" height="30" as="geometry" />
        </mxCell>
        <mxCell id="2lLB-E0RqOmEVBIA-LBa-17" value="" style="edgeStyle=none;curved=1;rounded=0;orthogonalLoop=1;jettySize=auto;html=1;fontSize=12;startSize=8;endSize=8;strokeColor=#FF0000;" edge="1" parent="1" source="2lLB-E0RqOmEVBIA-LBa-6" target="2lLB-E0RqOmEVBIA-LBa-14">
          <mxGeometry relative="1" as="geometry" />
        </mxCell>
        <mxCell id="2lLB-E0RqOmEVBIA-LBa-18" value="" style="endArrow=open;strokeColor=#FF0000;endFill=1;rounded=0;entryX=1;entryY=0.5;entryDx=0;entryDy=0;" edge="1" parent="1" source="2lLB-E0RqOmEVBIA-LBa-14" target="2lLB-E0RqOmEVBIA-LBa-7">
          <mxGeometry relative="1" as="geometry">
            <mxPoint x="495" y="348" as="targetPoint" />
            <Array as="points">
              <mxPoint x="495.5" y="373" />
            </Array>
          </mxGeometry>
        </mxCell>
        <mxCell id="2lLB-E0RqOmEVBIA-LBa-19" value="" style="endArrow=open;strokeColor=#FF0000;endFill=1;rounded=0;entryX=0;entryY=0.5;entryDx=0;entryDy=0;exitX=1;exitY=0.5;exitDx=0;exitDy=0;" edge="1" parent="1" source="2lLB-E0RqOmEVBIA-LBa-9" target="2lLB-E0RqOmEVBIA-LBa-15">
          <mxGeometry relative="1" as="geometry">
            <mxPoint x="340" y="580" as="sourcePoint" />
            <mxPoint x="291" y="470" as="targetPoint" />
            <Array as="points" />
          </mxGeometry>
        </mxCell>
        <mxCell id="2lLB-E0RqOmEVBIA-LBa-20" value="서버" style="swimlane;whiteSpace=wrap;startSize=23;" vertex="1" parent="1">
          <mxGeometry x="600" y="128" width="180" height="570" as="geometry" />
        </mxCell>
        <mxCell id="2lLB-E0RqOmEVBIA-LBa-21" value="D-Day 리스트를&#xa;가져와 캘린더에 표시" style="" vertex="1" parent="2lLB-E0RqOmEVBIA-LBa-20">
          <mxGeometry x="20" y="110" width="110" height="50" as="geometry" />
        </mxCell>
        <mxCell id="2lLB-E0RqOmEVBIA-LBa-22" value="D-Day 추가" style="" vertex="1" parent="2lLB-E0RqOmEVBIA-LBa-20">
          <mxGeometry x="20" y="304.5" width="110" height="50" as="geometry" />
        </mxCell>
      </root>
    </mxGraphModel>
  </diagram>
</mxfile>
